<svg width="28" height="32" viewBox="0 0 28 32" fill="none" xmlns="http://www.w3.org/2000/svg">
<path d="M9.57853 31.9997C4.81597 31.9723 0.876465 22.2503 0.876465 17.2991C0.876465 9.21132 6.94365 7.4407 9.2819 7.4407C10.3357 7.4407 11.4608 7.85451 12.4533 8.2207C13.1473 8.47613 13.865 8.73982 14.2642 8.73982C14.5032 8.73982 15.0662 8.51551 15.5633 8.3187C16.6235 7.89663 17.9428 7.37207 19.479 7.37207C19.4818 7.37207 19.4855 7.37207 19.4882 7.37207C20.6353 7.37207 24.1134 7.62382 26.2045 10.7641L26.6943 11.5001L25.9893 12.0321C24.9823 12.7919 23.1448 14.1781 23.1448 16.9238C23.1448 20.1757 25.2258 21.4263 26.2255 22.0278C26.6668 22.2933 27.1237 22.5671 27.1237 23.1658C27.1237 23.5568 24.0035 31.9512 19.4726 31.9512C18.3639 31.9512 17.5802 31.6179 16.889 31.3241C16.1895 31.0265 15.5862 30.7702 14.5892 30.7702C14.0838 30.7702 13.4447 31.0091 12.7682 31.2628C11.8436 31.6078 10.7971 31.9997 9.60965 31.9997H9.57853Z" fill="white"/>
<path d="M19.9591 0C20.0771 4.25475 17.0343 7.2065 13.995 7.02138C13.4942 3.62594 17.0339 0 19.9591 0Z" fill="white"/>
</svg>
