<svg baseProfile="full" height="283" version="1.1" width="213" xmlns="http://www.w3.org/2000/svg" xmlns:ev="http://www.w3.org/2001/xml-events" xmlns:xlink="http://www.w3.org/1999/xlink"><defs /><path d="M 102,20 L 101,21 L 99,21 L 97,23 L 96,23 L 94,25 L 93,25 L 92,26 L 90,26 L 89,27 L 82,27 L 81,26 L 78,26 L 77,25 L 74,25 L 73,26 L 70,26 L 69,27 L 68,27 L 67,28 L 66,28 L 61,33 L 61,34 L 55,40 L 54,40 L 53,41 L 52,41 L 51,42 L 45,42 L 44,43 L 42,43 L 41,44 L 40,44 L 39,43 L 40,44 L 36,48 L 35,48 L 35,49 L 34,50 L 33,49 L 34,50 L 33,51 L 33,52 L 32,53 L 32,56 L 31,57 L 30,57 L 31,58 L 31,60 L 30,61 L 29,60 L 30,61 L 30,62 L 28,64 L 28,65 L 26,67 L 25,67 L 24,66 L 25,67 L 23,69 L 22,69 L 21,70 L 20,70 L 15,75 L 14,74 L 15,75 L 15,76 L 14,77 L 14,78 L 13,79 L 13,82 L 12,83 L 12,87 L 13,88 L 13,95 L 12,96 L 12,98 L 11,99 L 11,100 L 9,102 L 9,103 L 6,106 L 5,105 L 6,106 L 6,107 L 5,108 L 5,109 L 4,110 L 4,120 L 5,121 L 5,122 L 6,123 L 6,124 L 7,125 L 7,126 L 8,127 L 8,129 L 9,130 L 9,137 L 8,138 L 7,138 L 8,139 L 8,140 L 7,141 L 7,145 L 6,146 L 6,147 L 7,148 L 7,152 L 8,153 L 8,154 L 10,156 L 10,157 L 14,161 L 15,161 L 17,163 L 17,164 L 19,166 L 19,167 L 20,168 L 20,171 L 21,172 L 21,180 L 22,181 L 22,182 L 24,184 L 24,185 L 28,189 L 29,189 L 30,190 L 31,190 L 32,191 L 34,191 L 35,192 L 36,192 L 37,193 L 38,193 L 40,195 L 39,196 L 41,198 L 42,197 L 44,199 L 44,200 L 43,201 L 43,202 L 42,203 L 43,204 L 41,206 L 41,207 L 40,208 L 41,209 L 40,210 L 39,210 L 39,211 L 40,212 L 39,213 L 38,213 L 39,214 L 38,215 L 37,215 L 38,216 L 36,218 L 37,219 L 36,220 L 35,220 L 34,219 L 36,221 L 35,222 L 34,222 L 34,223 L 35,224 L 34,225 L 33,225 L 34,226 L 33,227 L 32,227 L 33,228 L 33,229 L 32,230 L 31,230 L 30,229 L 32,231 L 31,232 L 30,232 L 30,233 L 31,234 L 30,235 L 29,235 L 30,236 L 29,237 L 28,237 L 28,238 L 27,239 L 27,240 L 28,241 L 27,242 L 26,242 L 27,243 L 26,244 L 25,244 L 26,245 L 26,246 L 25,247 L 24,247 L 25,248 L 24,249 L 23,249 L 23,250 L 24,251 L 23,252 L 23,253 L 22,254 L 21,254 L 21,256 L 22,257 L 21,258 L 22,258 L 24,260 L 24,261 L 25,260 L 28,260 L 29,261 L 31,259 L 32,260 L 33,260 L 34,259 L 36,259 L 37,258 L 39,258 L 40,257 L 42,257 L 42,256 L 43,255 L 44,256 L 45,256 L 45,255 L 46,254 L 47,255 L 48,254 L 49,255 L 50,254 L 56,254 L 57,255 L 56,256 L 57,255 L 58,256 L 58,257 L 59,257 L 60,258 L 60,260 L 61,261 L 61,262 L 62,263 L 62,264 L 63,265 L 63,266 L 64,266 L 65,267 L 64,268 L 65,269 L 65,270 L 66,271 L 66,272 L 68,274 L 68,275 L 69,276 L 69,277 L 70,278 L 70,279 L 69,280 L 70,281 L 71,280 L 72,281 L 76,281 L 77,280 L 78,280 L 80,278 L 80,276 L 81,275 L 81,274 L 82,273 L 82,272 L 83,271 L 83,269 L 84,268 L 84,267 L 85,266 L 86,267 L 85,266 L 85,264 L 86,263 L 86,262 L 87,261 L 88,262 L 86,260 L 87,259 L 88,259 L 88,257 L 89,256 L 89,255 L 90,254 L 89,253 L 91,251 L 91,250 L 92,249 L 93,250 L 92,249 L 92,248 L 93,247 L 94,247 L 93,246 L 93,245 L 94,244 L 94,243 L 95,242 L 96,242 L 95,241 L 95,240 L 96,239 L 97,240 L 96,239 L 96,238 L 97,237 L 97,235 L 98,234 L 98,233 L 99,232 L 99,230 L 100,229 L 100,228 L 101,227 L 101,226 L 102,225 L 102,223 L 104,221 L 109,221 L 110,222 L 111,222 L 112,223 L 112,224 L 111,225 L 112,226 L 112,227 L 113,227 L 114,228 L 113,229 L 114,229 L 115,230 L 115,231 L 114,232 L 115,231 L 116,232 L 116,233 L 115,234 L 116,234 L 117,235 L 116,236 L 116,237 L 117,237 L 118,238 L 117,239 L 118,239 L 119,240 L 118,241 L 119,242 L 119,244 L 118,245 L 119,244 L 120,244 L 121,245 L 119,247 L 120,247 L 121,248 L 121,249 L 120,250 L 121,249 L 122,249 L 123,250 L 122,251 L 123,251 L 124,252 L 123,253 L 123,254 L 124,254 L 125,255 L 123,257 L 124,256 L 125,256 L 126,257 L 125,258 L 127,260 L 126,261 L 127,261 L 128,262 L 127,263 L 129,265 L 127,267 L 128,266 L 129,267 L 129,268 L 130,268 L 131,269 L 130,270 L 131,270 L 132,271 L 132,272 L 131,273 L 132,273 L 133,274 L 132,275 L 133,275 L 134,276 L 133,277 L 133,278 L 134,277 L 135,278 L 135,279 L 137,281 L 141,281 L 142,280 L 143,281 L 142,280 L 143,279 L 142,278 L 143,277 L 144,277 L 144,274 L 145,273 L 146,274 L 145,273 L 145,272 L 146,271 L 147,272 L 146,271 L 146,270 L 147,269 L 148,270 L 147,269 L 147,268 L 148,267 L 149,268 L 148,267 L 149,266 L 150,266 L 151,267 L 149,265 L 150,264 L 151,264 L 150,263 L 151,262 L 152,262 L 151,261 L 152,260 L 153,260 L 153,258 L 154,257 L 155,257 L 154,256 L 156,254 L 163,254 L 164,255 L 166,255 L 167,256 L 170,256 L 171,257 L 173,257 L 174,258 L 176,258 L 177,259 L 180,259 L 181,260 L 182,259 L 184,261 L 185,260 L 186,261 L 189,261 L 192,258 L 192,254 L 191,253 L 191,252 L 190,251 L 190,249 L 189,248 L 189,247 L 188,246 L 188,244 L 187,243 L 187,242 L 186,241 L 186,240 L 185,239 L 185,237 L 184,236 L 184,235 L 183,234 L 183,232 L 182,232 L 181,231 L 183,229 L 182,230 L 181,229 L 181,227 L 180,226 L 180,225 L 181,224 L 180,225 L 179,224 L 179,223 L 178,222 L 178,220 L 177,219 L 177,217 L 176,216 L 176,215 L 175,214 L 175,213 L 174,212 L 174,211 L 172,209 L 173,208 L 172,207 L 172,205 L 171,204 L 171,203 L 170,202 L 170,201 L 169,200 L 169,199 L 175,193 L 176,193 L 177,192 L 178,192 L 179,191 L 181,191 L 182,190 L 183,190 L 184,189 L 185,189 L 189,185 L 189,184 L 191,182 L 191,181 L 192,180 L 192,172 L 193,171 L 193,168 L 194,167 L 194,166 L 196,164 L 196,163 L 198,161 L 199,161 L 200,162 L 202,160 L 201,159 L 203,157 L 203,156 L 205,154 L 205,153 L 206,152 L 206,141 L 205,140 L 205,139 L 206,138 L 205,138 L 204,137 L 204,129 L 205,128 L 205,127 L 206,126 L 206,125 L 207,124 L 207,123 L 208,122 L 208,121 L 209,120 L 209,110 L 208,109 L 208,108 L 207,107 L 207,106 L 204,103 L 204,102 L 202,100 L 202,99 L 201,98 L 201,96 L 200,95 L 200,87 L 201,86 L 201,82 L 200,81 L 200,78 L 198,76 L 198,75 L 199,74 L 198,75 L 193,70 L 194,69 L 193,70 L 192,70 L 191,69 L 190,69 L 188,67 L 189,66 L 188,65 L 187,66 L 185,64 L 186,63 L 185,64 L 183,62 L 183,61 L 184,60 L 183,61 L 182,60 L 182,58 L 183,57 L 182,57 L 181,56 L 181,54 L 180,53 L 180,52 L 179,51 L 179,50 L 178,49 L 178,48 L 177,48 L 173,44 L 172,44 L 171,43 L 169,43 L 168,42 L 162,42 L 161,41 L 160,41 L 159,40 L 158,40 L 152,34 L 152,33 L 153,32 L 152,33 L 147,28 L 146,28 L 145,27 L 144,27 L 143,26 L 139,26 L 138,25 L 136,25 L 135,26 L 132,26 L 131,27 L 124,27 L 123,26 L 121,26 L 120,25 L 119,25 L 117,23 L 118,22 L 117,23 L 116,23 L 114,21 L 112,21 L 111,20 Z" fill="gold" stroke="black" stroke-width="1" /><path d="M 13,4 L 13,5 L 14,6 L 15,6 L 16,5 L 16,4 L 15,5 L 14,5 Z" fill="gold" stroke="black" stroke-width="1" /><path d="M 44,1 L 44,2 L 43,3 L 42,3 L 40,5 L 39,4 L 39,3 L 38,3 L 37,4 L 36,3 L 34,3 L 33,4 L 32,3 L 29,3 L 28,4 L 27,3 L 27,2 L 22,2 L 22,8 L 23,8 L 23,7 L 24,6 L 26,6 L 28,4 L 29,5 L 29,8 L 30,8 L 30,5 L 31,4 L 32,5 L 32,7 L 33,8 L 37,8 L 37,6 L 38,5 L 39,6 L 39,7 L 40,8 L 41,8 L 42,7 L 42,5 L 43,4 L 44,5 L 44,8 L 45,8 L 46,7 L 47,8 L 51,8 L 51,6 L 52,5 L 53,6 L 53,8 L 55,8 L 56,7 L 57,8 L 58,8 L 58,7 L 59,6 L 59,3 L 57,5 L 56,4 L 56,3 L 55,3 L 55,4 L 54,5 L 53,4 L 53,3 L 52,3 L 51,4 L 50,3 L 48,3 L 46,5 L 44,3 L 45,2 L 45,1 Z" fill="gold" stroke="black" stroke-width="1" /><path d="M 0,0 L 0,282 Z" fill="gold" stroke="black" stroke-width="1" /></svg>