<svg width="20" height="20" viewBox="0 0 20 20" fill="none" xmlns="http://www.w3.org/2000/svg">
<path d="M19.5833 19.1667H18.3333V9.58333C18.7474 9.31768 19.0821 8.9452 19.3021 8.50519C19.5221 8.06519 19.6192 7.57396 19.5833 7.08333C19.58 7.01851 19.5644 6.9549 19.5375 6.89583C17.1708 2.15833 17.5 3.0625 17.5 2.08333C17.5 1.5308 17.2805 1.0009 16.8898 0.610194C16.4991 0.219493 15.9692 0 15.4167 0L4.58333 0C4.0308 0 3.5009 0.219493 3.11019 0.610194C2.71949 1.0009 2.5 1.5308 2.5 2.08333V2.81667C0.370833 7.08333 0.416667 6.92083 0.416667 7.08333C0.379858 7.57408 0.476634 8.06564 0.69672 8.50581C0.916805 8.94598 1.25198 9.31833 1.66667 9.58333V19.1667H0.416667C0.30616 19.1667 0.200179 19.2106 0.122039 19.2887C0.0438987 19.3668 0 19.4728 0 19.5833C0 19.6938 0.0438987 19.7998 0.122039 19.878C0.200179 19.9561 0.30616 20 0.416667 20H19.5833C19.6938 20 19.7998 19.9561 19.878 19.878C19.9561 19.7998 20 19.6938 20 19.5833C20 19.4728 19.9561 19.3668 19.878 19.2887C19.7998 19.2106 19.6938 19.1667 19.5833 19.1667ZM16.875 9.16667C16.4118 9.16953 15.9639 9.00084 15.6177 8.6931C15.2715 8.38535 15.0515 7.96035 15 7.5H18.75C18.6985 7.96035 18.4785 8.38535 18.1323 8.6931C17.7861 9.00084 17.3382 9.16953 16.875 9.16667ZM6.59167 3.33333H9.58333V6.66667H5.925L6.59167 3.33333ZM13.4083 3.33333L14.075 6.66667H10.4167V3.33333H13.4083ZM9.58333 7.5C9.58333 7.99728 9.38579 8.47419 9.03416 8.82582C8.68253 9.17746 8.20561 9.375 7.70833 9.375C7.21105 9.375 6.73414 9.17746 6.38251 8.82582C6.03088 8.47419 5.83333 7.99728 5.83333 7.5H9.58333ZM14.1667 7.5C14.1667 7.99728 13.9691 8.47419 13.6175 8.82582C13.2659 9.17746 12.7889 9.375 12.2917 9.375C11.7944 9.375 11.3175 9.17746 10.9658 8.82582C10.6142 8.47419 10.4167 7.99728 10.4167 7.5H14.1667ZM14.9375 6.66667L14.2708 3.33333H16.8375L18.5042 6.66667H14.9375ZM3.33333 2.08333C3.33333 1.75181 3.46503 1.43387 3.69945 1.19945C3.93387 0.965029 4.25181 0.833333 4.58333 0.833333H15.4167C15.7482 0.833333 16.0661 0.965029 16.3005 1.19945C16.535 1.43387 16.6667 1.75181 16.6667 2.08333V2.5H3.33333V2.08333ZM3.175 3.33333H5.74167L5.075 6.66667H1.50833L3.175 3.33333ZM5 7.5C5 7.99728 4.80246 8.47419 4.45082 8.82582C4.09919 9.17746 3.62228 9.375 3.125 9.375C2.62772 9.375 2.15081 9.17746 1.79917 8.82582C1.44754 8.47419 1.25 7.99728 1.25 7.5H5ZM2.5 9.925C3.04798 10.0583 3.62393 10.0166 4.14703 9.8059C4.67013 9.59517 5.11411 9.22592 5.41667 8.75C5.65989 9.13828 5.99779 9.4584 6.39864 9.6803C6.7995 9.90221 7.25016 10.0186 7.70833 10.0186C8.16651 10.0186 8.61717 9.90221 9.01802 9.6803C9.41887 9.4584 9.75677 9.13828 10 8.75C10.2432 9.13828 10.5811 9.4584 10.982 9.6803C11.3828 9.90221 11.8335 10.0186 12.2917 10.0186C12.7498 10.0186 13.2005 9.90221 13.6014 9.6803C14.0022 9.4584 14.3401 9.13828 14.5833 8.75C14.8825 9.23016 15.3252 9.60403 15.8487 9.81865C16.3721 10.0333 16.9498 10.0778 17.5 9.94583V19.1667H16.6667V12.0833C16.6667 11.9728 16.6228 11.8668 16.5446 11.7887C16.4665 11.7106 16.3605 11.6667 16.25 11.6667H12.0833C11.9728 11.6667 11.8668 11.7106 11.7887 11.7887C11.7106 11.8668 11.6667 11.9728 11.6667 12.0833V19.1667H2.5V9.925ZM12.5 19.1667V12.5H15.8333V19.1667H12.5Z" fill="white"/>
</svg>
