<svg width="30" height="22" viewBox="0 0 30 22" fill="none" xmlns="http://www.w3.org/2000/svg">
<path d="M1.70455 0C0.760231 0 0 0.743333 0 1.66667V13.5L8.40554 6.16667C8.50359 6.07877 8.6258 6.02084 8.7571 6C8.86893 5.98443 8.98296 5.99627 9.08895 6.03444C9.19494 6.07262 9.28958 6.13595 9.36435 6.21873L15.4048 12.7396L20.1349 8.82294C20.2563 8.7215 20.4102 8.66489 20.5698 8.663C20.7295 8.66112 20.8847 8.71406 21.0085 8.8126L25.0249 12.0105C25.093 12.0072 25.1585 12.0002 25.2273 12.0002C25.7002 12.0002 26.1533 12.0666 26.5909 12.1772V1.66667C26.5909 0.743333 25.8307 0 24.8864 0H1.70455ZM16.0227 4C16.9641 4 17.7273 4.7462 17.7273 5.66667C17.7273 6.58713 16.9641 7.33333 16.0227 7.33333C15.0813 7.33333 14.3182 6.58713 14.3182 5.66667C14.3182 4.7462 15.0813 4 16.0227 4ZM8.81037 7.60417L0 15.2917V17C0 17.9233 0.760231 18.6667 1.70455 18.6667H19.9538C19.8407 18.2388 19.7727 17.7958 19.7727 17.3333C19.7727 15.0543 21.2421 13.1178 23.299 12.3542L20.5824 10.1979L15.7777 14.1667C15.6444 14.2771 15.4728 14.3333 15.2983 14.3236C15.1239 14.3139 14.9599 14.2391 14.8402 14.1146L8.81037 7.60417ZM25.2273 12.6667C22.5914 12.6667 20.4545 14.756 20.4545 17.3333C20.4545 19.9107 22.5914 22 25.2273 22C27.8632 22 30 19.9107 30 17.3333C30 14.756 27.8632 12.6667 25.2273 12.6667ZM25.2273 14.3333C25.424 14.3333 25.5929 14.4218 25.7173 14.5521C26.2849 15.0467 26.8445 15.6642 27.4112 16.1979C27.6855 16.466 27.6775 16.8751 27.4112 17.1354C27.1449 17.3958 26.7187 17.3958 26.4524 17.1354L25.9091 16.6042V19.6667C25.9091 20.0349 25.6039 20.3333 25.2273 20.3333C24.8507 20.3333 24.5455 20.0349 24.5455 19.6667V16.6042L24.0021 17.1354C23.7358 17.3958 23.3096 17.3958 23.0433 17.1354C22.777 16.8751 22.7717 16.466 23.0433 16.1979C23.598 15.6522 24.1796 15.0567 24.7372 14.5521C24.8617 14.4218 25.0305 14.3333 25.2273 14.3333Z" fill="white"/>
</svg>
