<svg width="42" height="32" viewBox="0 0 42 32" fill="none" xmlns="http://www.w3.org/2000/svg">
<g clip-path="url(#clip0_2139_5404)">
<path d="M7.4836 31.8406V29.7226C7.4836 28.9106 6.98929 28.3812 6.14202 28.3812C5.71846 28.3812 5.25952 28.5224 4.94178 28.9813C4.69478 28.593 4.34182 28.3812 3.81229 28.3812C3.45916 28.3812 3.10636 28.487 2.82383 28.8753V28.4518H2.08252V31.8406H2.82383V29.9696C2.82383 29.3696 3.14157 29.0871 3.63589 29.0871C4.12988 29.0871 4.37719 29.4049 4.37719 29.9696V31.8406H5.1185V29.9696C5.1185 29.3696 5.4713 29.0871 5.93024 29.0871C6.42455 29.0871 6.67155 29.4049 6.67155 29.9696V31.8406H7.4836ZM18.4619 28.4518H17.2618V27.4281H16.5205V28.4518H15.8498V29.1223H16.5203V30.6757C16.5203 31.4524 16.8381 31.9112 17.6853 31.9112C18.0031 31.9112 18.3559 31.8053 18.6032 31.6642L18.3913 31.0287C18.1795 31.1698 17.9325 31.2052 17.7559 31.2052C17.403 31.2052 17.2618 30.9934 17.2618 30.6403V29.1223H18.4619V28.4518ZM24.7454 28.381C24.3219 28.381 24.0395 28.593 23.8629 28.8753V28.4518H23.1216V31.8406H23.8629V29.9344C23.8629 29.3696 24.1099 29.0519 24.5689 29.0519C24.7101 29.0519 24.8866 29.0873 25.0278 29.1225L25.2396 28.4166C25.0984 28.3812 24.8866 28.3812 24.7454 28.3812V28.381ZM15.2496 28.7341C14.8965 28.487 14.4024 28.3812 13.8728 28.3812C13.0257 28.3812 12.461 28.8047 12.461 29.4755C12.461 30.0404 12.8845 30.3579 13.6258 30.4639L13.9788 30.4993C14.3671 30.5697 14.5789 30.6757 14.5789 30.8523C14.5789 31.0993 14.2965 31.2758 13.8022 31.2758C13.3081 31.2758 12.9197 31.0993 12.6726 30.9229L12.3196 31.4876C12.708 31.77 13.2375 31.9112 13.7669 31.9112C14.7553 31.9112 15.3202 31.4524 15.3202 30.8169C15.3202 30.2168 14.8613 29.899 14.1552 29.7932L13.8022 29.7578C13.4845 29.7225 13.2375 29.652 13.2375 29.4402C13.2375 29.1931 13.4845 29.0519 13.8728 29.0519C14.2965 29.0519 14.7201 29.2283 14.9319 29.3343L15.2496 28.7341ZM34.9473 28.3812C34.5236 28.3812 34.2412 28.593 34.0647 28.8753V28.4518H33.3234V31.8406H34.0647V29.9344C34.0647 29.3696 34.3118 29.0519 34.7706 29.0519C34.9119 29.0519 35.0885 29.0873 35.2297 29.1225L35.4415 28.4166C35.3003 28.3812 35.0885 28.3812 34.9473 28.3812ZM25.4867 30.1462C25.4867 31.1698 26.1927 31.9112 27.2871 31.9112C27.7813 31.9112 28.1342 31.8053 28.4872 31.523L28.1342 30.9229C27.8518 31.1346 27.5695 31.2404 27.2517 31.2404C26.6516 31.2404 26.228 30.8169 26.228 30.1462C26.228 29.5108 26.6516 29.0871 27.2517 29.0519C27.5695 29.0519 27.8518 29.1577 28.1342 29.3696L28.4872 28.7695C28.1342 28.487 27.7813 28.3812 27.2871 28.3812C26.1927 28.3812 25.4867 29.1225 25.4867 30.1462ZM32.3351 30.1462V28.4518H31.5938V28.8753C31.3466 28.5577 30.9936 28.3812 30.5347 28.3812C29.5816 28.3812 28.8403 29.1225 28.8403 30.1462C28.8403 31.1698 29.5816 31.9112 30.5347 31.9112C31.0289 31.9112 31.382 31.7348 31.5938 31.417V31.8406H32.3351V30.1462ZM29.6168 30.1462C29.6168 29.546 30.0052 29.0519 30.6405 29.0519C31.2406 29.0519 31.6643 29.5108 31.6643 30.1462C31.6643 30.7463 31.2406 31.2404 30.6405 31.2404C30.0052 31.2051 29.6168 30.7463 29.6168 30.1462ZM20.7565 28.3812C19.7681 28.3812 19.062 29.0871 19.062 30.1462C19.062 31.2052 19.7679 31.9112 20.7917 31.9112C21.2859 31.9112 21.7802 31.77 22.1686 31.4524L21.8154 30.9229C21.5331 31.1346 21.1801 31.2758 20.8271 31.2758C20.3682 31.2758 19.9093 31.064 19.8033 30.4638H22.3097V30.1815C22.3451 29.0871 21.7096 28.3812 20.7564 28.3812H20.7565ZM20.7565 29.0165C21.2153 29.0165 21.5332 29.2991 21.6036 29.8286H19.8387C19.9093 29.3696 20.227 29.0165 20.7565 29.0165ZM39.148 30.1462V27.1104H38.4067V28.8753C38.1595 28.5577 37.8066 28.3812 37.3476 28.3812C36.3946 28.3812 35.6533 29.1225 35.6533 30.1462C35.6533 31.1698 36.3946 31.9112 37.3476 31.9112C37.842 31.9112 38.1949 31.7348 38.4067 31.417V31.8406H39.148V30.1462ZM36.4299 30.1462C36.4299 29.546 36.8181 29.0519 37.4536 29.0519C38.0537 29.0519 38.4773 29.5108 38.4773 30.1462C38.4773 30.7463 38.0537 31.2404 37.4536 31.2404C36.8181 31.2051 36.4299 30.7463 36.4299 30.1462ZM11.6489 30.1462V28.4518H10.9076V28.8753C10.6604 28.5577 10.3075 28.3812 9.84855 28.3812C8.89546 28.3812 8.15416 29.1225 8.15416 30.1462C8.15416 31.1698 8.89546 31.9112 9.84855 31.9112C10.3429 31.9112 10.6958 31.7348 10.9076 31.417V31.8406H11.6489V30.1462ZM8.89546 30.1462C8.89546 29.546 9.28381 29.0519 9.91914 29.0519C10.5193 29.0519 10.943 29.5108 10.943 30.1462C10.943 30.7463 10.5193 31.2404 9.91914 31.2404C9.28381 31.2051 8.89546 30.7463 8.89546 30.1462Z" fill="black"/>
<path d="M15.0029 2.71777H26.1225V22.6978H15.0029V2.71777Z" fill="#FF5F00"/>
<path d="M15.7088 12.7082C15.7088 8.64868 17.615 5.04796 20.5448 2.71807C18.3916 1.02368 15.6736 0 12.7083 0C5.6833 0 0 5.6833 0 12.7082C0 19.7329 5.6833 25.4164 12.7082 25.4164C15.6734 25.4164 18.3915 24.3927 20.5448 22.6981C17.615 20.4036 15.7088 16.7677 15.7088 12.7082Z" fill="#EB001B"/>
<path d="M41.1249 12.7082C41.1249 19.7329 35.4416 25.4164 28.4167 25.4164C25.4515 25.4164 22.7334 24.3927 20.5801 22.6981C23.5453 20.3684 25.4163 16.7677 25.4163 12.7082C25.4163 8.64868 23.5099 5.04796 20.5801 2.71807C22.7332 1.02368 25.4515 0 28.4167 0C35.4416 0 41.125 5.71867 41.125 12.7082H41.1249Z" fill="#F79E1B"/>
</g>
<defs>
<clipPath id="clip0_2139_5404">
<rect width="41.1658" height="32" fill="white"/>
</clipPath>
</defs>
</svg>
